<svg width="20" height="18" viewBox="0 0 20 18" fill="none" xmlns="http://www.w3.org/2000/svg">
<path d="M10.1754 1.96875C8.73598 1.96875 7.32886 2.38113 6.13201 3.15373C4.93515 3.92633 4.00232 5.02446 3.45147 6.30926C2.90061 7.59405 2.75649 9.0078 3.03731 10.3717C3.31813 11.7357 4.01129 12.9885 5.02913 13.9718C6.04697 14.9552 7.34378 15.6248 8.75556 15.8961C10.1674 16.1674 11.6307 16.0282 12.9606 15.496C14.2905 14.9638 15.4271 14.0626 16.2268 12.9064C17.0265 11.7501 17.4534 10.3906 17.4534 9C17.4513 7.13582 16.6838 5.34859 15.3194 4.03042C13.955 2.71224 12.105 1.9708 10.1754 1.96875ZM10.1754 15.4687C8.85113 15.4687 7.55659 15.0894 6.45548 14.3786C5.35437 13.6678 4.49617 12.6575 3.98938 11.4755C3.4826 10.2935 3.35 8.99282 3.60836 7.73801C3.86671 6.48319 4.50442 5.33057 5.44083 4.4259C6.37725 3.52123 7.57031 2.90514 8.86915 2.65555C10.168 2.40595 11.5143 2.53405 12.7378 3.02365C13.9612 3.51326 15.007 4.34237 15.7427 5.40615C16.4784 6.46993 16.8711 7.7206 16.8711 9C16.8692 10.715 16.1632 12.3593 14.9079 13.572C13.6526 14.7848 11.9506 15.4669 10.1754 15.4687ZM14.5422 9C14.5422 9.07459 14.5115 9.14613 14.4569 9.19887C14.4023 9.25162 14.3283 9.28125 14.2511 9.28125H10.1754C10.0982 9.28125 10.0242 9.25162 9.96957 9.19887C9.91498 9.14613 9.88431 9.07459 9.88431 9V5.0625C9.88431 4.98791 9.91498 4.91637 9.96957 4.86363C10.0242 4.81088 10.0982 4.78125 10.1754 4.78125C10.2526 4.78125 10.3267 4.81088 10.3813 4.86363C10.4359 4.91637 10.4665 4.98791 10.4665 5.0625V8.71875H14.2511C14.3283 8.71875 14.4023 8.74838 14.4569 8.80113C14.5115 8.85387 14.5422 8.92541 14.5422 9Z" fill="#656565"/>
</svg>
