<svg xmlns="http://www.w3.org/2000/svg" width="22" height="21" viewBox="0 0 22 21" fill="none">
  <path d="M11.4915 2.29688C9.86903 2.29687 8.28304 2.77798 6.93405 3.67935C5.58505 4.58072 4.53363 5.86187 3.91276 7.3608C3.29188 8.85972 3.12944 10.5091 3.44595 12.1003C3.76247 13.6916 4.54375 15.1533 5.69097 16.3005C6.8382 17.4477 8.29986 18.229 9.89111 18.5455C11.4824 18.862 13.1317 18.6996 14.6307 18.0787C16.1296 17.4578 17.4107 16.4064 18.3121 15.0574C19.2135 13.7084 19.6946 12.1224 19.6946 10.5C19.6922 8.32513 18.8272 6.24002 17.2893 4.70215C15.7514 3.16429 13.6663 2.29926 11.4915 2.29688ZM11.4915 18.0469C9.99883 18.0469 8.53972 17.6043 7.29864 16.775C6.05756 15.9457 5.09026 14.7671 4.51906 13.3881C3.94785 12.0091 3.7984 10.4916 4.08959 9.02768C4.38079 7.56373 5.09956 6.219 6.15501 5.16355C7.21046 4.1081 8.55519 3.38933 10.0191 3.09814C11.4831 2.80694 13.0005 2.95639 14.3795 3.5276C15.7585 4.0988 16.9372 5.0661 17.7665 6.30718C18.5957 7.54826 19.0383 9.00737 19.0383 10.5C19.0362 12.5009 18.2403 14.4192 16.8255 15.834C15.4107 17.2489 13.4923 18.0447 11.4915 18.0469ZM16.4133 10.5C16.4133 10.587 16.3788 10.6705 16.3172 10.732C16.2557 10.7936 16.1722 10.8281 16.0852 10.8281H11.4915C11.4044 10.8281 11.321 10.7936 11.2594 10.732C11.1979 10.6705 11.1633 10.587 11.1633 10.5V5.90625C11.1633 5.81923 11.1979 5.73577 11.2594 5.67423C11.321 5.61269 11.4044 5.57812 11.4915 5.57812C11.5785 5.57812 11.6619 5.61269 11.7235 5.67423C11.785 5.73577 11.8196 5.81923 11.8196 5.90625V10.1719H16.0852C16.1722 10.1719 16.2557 10.2064 16.3172 10.268C16.3788 10.3295 16.4133 10.413 16.4133 10.5Z" fill="#BB915B"/>
</svg>