<svg xmlns="http://www.w3.org/2000/svg" width="14" height="14" viewBox="0 0 14 14" fill="none">
  <line y1="-0.5" x2="13.901" y2="-0.5" transform="matrix(0.877861 0.478915 -0.695363 0.718659 0.211712 1)" stroke="white"/>
  <line y1="-0.5" x2="13.901" y2="-0.5" transform="matrix(0.877861 0.478915 -0.695363 0.718659 0.211712 1)" stroke="white"/>
  <line y1="-0.5" x2="13.901" y2="-0.5" transform="matrix(0.877861 0.478915 -0.695363 0.718659 0.211712 1)" stroke="white"/>
  <line y1="-0.5" x2="13.901" y2="-0.5" transform="matrix(0.877861 0.478915 -0.695363 0.718659 0.211712 1)" stroke="white"/>
  <line y1="-0.5" x2="13.901" y2="-0.5" transform="matrix(0.877861 -0.478916 0.695363 0.718659 1.4185 14)" stroke="white"/>
  <line y1="-0.5" x2="13.901" y2="-0.5" transform="matrix(0.877861 -0.478916 0.695363 0.718659 1.4185 14)" stroke="white"/>
  <line y1="-0.5" x2="13.901" y2="-0.5" transform="matrix(0.877861 -0.478916 0.695363 0.718659 1.4185 14)" stroke="white"/>
  <line y1="-0.5" x2="13.901" y2="-0.5" transform="matrix(0.877861 -0.478916 0.695363 0.718659 1.4185 14)" stroke="white"/>
</svg>