<svg width="24" height="24" viewBox="0 0 24 24" fill="none" xmlns="http://www.w3.org/2000/svg">
<path d="M19.5 0.75H12.375C11.7156 0.759393 11.0866 1.02896 10.625 1.5L1.50004 10.75C1.04198 11.2173 0.7854 11.8456 0.7854 12.5C0.7854 13.1544 1.04198 13.7827 1.50004 14.25L9.75004 22.5C10.2174 22.9581 10.8457 23.2146 11.5 23.2146C12.1544 23.2146 12.7827 22.9581 13.25 22.5L22.5 13.125C22.9711 12.6634 23.2406 12.0344 23.25 11.375V4.5C23.25 3.50544 22.855 2.55161 22.1517 1.84835C21.4484 1.14509 20.4946 0.75 19.5 0.75ZM16.5 8.75C16.1685 8.75 15.8506 8.6183 15.6162 8.38388C15.3817 8.14946 15.25 7.83152 15.25 7.5C15.25 7.16848 15.3817 6.85054 15.6162 6.61612C15.8506 6.3817 16.1685 6.25 16.5 6.25C16.8316 6.25 17.1495 6.3817 17.3839 6.61612C17.6183 6.85054 17.75 7.16848 17.75 7.5C17.75 7.83152 17.6183 8.14946 17.3839 8.38388C17.1495 8.6183 16.8316 8.75 16.5 8.75Z" fill="#FFFFFF"/>
</svg>
