<svg width="28" height="24" viewBox="0 0 28 24" fill="none" xmlns="http://www.w3.org/2000/svg">
<path fill-rule="evenodd" clip-rule="evenodd" d="M16.5 5.75C16.1685 5.75 15.8505 5.8817 15.6161 6.11612C15.3817 6.35054 15.25 6.66848 15.25 7V17C15.25 17.3315 15.3817 17.6495 15.6161 17.8839C15.8505 18.1183 16.1685 18.25 16.5 18.25H21.5C21.8315 18.25 22.1495 18.1183 22.3839 17.8839C22.6183 17.6495 22.75 17.3315 22.75 17V7C22.75 6.66848 22.6183 6.35054 22.3839 6.11612C22.1495 5.8817 21.8315 5.75 21.5 5.75H16.5ZM20.25 8.25H17.75V15.75H20.25V8.25Z" fill="#BB915B"/>
<path d="M6.5 5.75C6.16848 5.75 5.85054 5.8817 5.61612 6.11612C5.3817 6.35054 5.25 6.66848 5.25 7C5.25 7.33152 5.3817 7.64946 5.61612 7.88388C5.85054 8.1183 6.16848 8.25 6.5 8.25H11.5C11.8315 8.25 12.1495 8.1183 12.3839 7.88388C12.6183 7.64946 12.75 7.33152 12.75 7C12.75 6.66848 12.6183 6.35054 12.3839 6.11612C12.1495 5.8817 11.8315 5.75 11.5 5.75H6.5ZM6.5 10.75C6.16848 10.75 5.85054 10.8817 5.61612 11.1161C5.3817 11.3505 5.25 11.6685 5.25 12C5.25 12.3315 5.3817 12.6495 5.61612 12.8839C5.85054 13.1183 6.16848 13.25 6.5 13.25H11.5C11.8315 13.25 12.1495 13.1183 12.3839 12.8839C12.6183 12.6495 12.75 12.3315 12.75 12C12.75 11.6685 12.6183 11.3505 12.3839 11.1161C12.1495 10.8817 11.8315 10.75 11.5 10.75H6.5ZM5.25 17C5.25 16.6685 5.3817 16.3505 5.61612 16.1161C5.85054 15.8817 6.16848 15.75 6.5 15.75H11.5C11.8315 15.75 12.1495 15.8817 12.3839 16.1161C12.6183 16.3505 12.75 16.6685 12.75 17C12.75 17.3315 12.6183 17.6495 12.3839 17.8839C12.1495 18.1183 11.8315 18.25 11.5 18.25H6.5C6.16848 18.25 5.85054 18.1183 5.61612 17.8839C5.3817 17.6495 5.25 17.3315 5.25 17Z" fill="#BB915B"/>
<path fill-rule="evenodd" clip-rule="evenodd" d="M4 0.75C3.00544 0.75 2.05161 1.14509 1.34835 1.84835C0.645088 2.55161 0.25 3.50544 0.25 4.5V19.5C0.25 20.4946 0.645088 21.4484 1.34835 22.1517C2.05161 22.8549 3.00544 23.25 4 23.25H24C24.9946 23.25 25.9484 22.8549 26.6517 22.1517C27.3549 21.4484 27.75 20.4946 27.75 19.5V4.5C27.75 3.50544 27.3549 2.55161 26.6517 1.84835C25.9484 1.14509 24.9946 0.75 24 0.75H4ZM24 3.25H4C3.66848 3.25 3.35054 3.3817 3.11612 3.61612C2.8817 3.85054 2.75 4.16848 2.75 4.5V19.5C2.75 19.8315 2.8817 20.1495 3.11612 20.3839C3.35054 20.6183 3.66848 20.75 4 20.75H24C24.3315 20.75 24.6495 20.6183 24.8839 20.3839C25.1183 20.1495 25.25 19.8315 25.25 19.5V4.5C25.25 4.16848 25.1183 3.85054 24.8839 3.61612C24.6495 3.3817 24.3315 3.25 24 3.25Z" fill="#BB915B"/>
</svg>
