<svg width="14" height="13" viewBox="0 0 14 13" fill="none" xmlns="http://www.w3.org/2000/svg">
<g clip-path="url(#clip0_77_1022)">
<path d="M7.15227 0.826157C5.25474 0.826157 3.71648 2.26503 3.71648 4.03995C3.71786 4.58487 3.86737 5.12059 4.00663 5.35859L7.15227 12.0242L10.1586 5.59662H10.157C10.4394 5.12028 10.5877 4.58462 10.588 4.03995C10.5881 2.26503 9.04979 0.826157 7.15227 0.826157ZM7.15227 2.43303C7.37786 2.43303 7.60125 2.4746 7.80968 2.55535C8.0181 2.63611 8.20748 2.75447 8.367 2.90369C8.52652 3.05291 8.65306 3.23005 8.73938 3.42501C8.82571 3.61997 8.87014 3.82893 8.87013 4.03995C8.87013 4.46612 8.68914 4.87484 8.36698 5.17619C8.04482 5.47753 7.60787 5.64683 7.15227 5.64683C6.69666 5.64683 6.25971 5.47753 5.93755 5.17619C5.61539 4.87484 5.4344 4.46612 5.4344 4.03995C5.4344 3.61378 5.61539 3.20507 5.93755 2.90372C6.25971 2.60237 6.69666 2.43308 7.15227 2.43308V2.43303Z" fill="#3C3C3C"/>
</g>
<defs>
<clipPath id="clip0_77_1022">
<rect width="12.8289" height="12" fill="white" transform="translate(0.737823 0.425186)"/>
</clipPath>
</defs>
</svg>
