<svg xmlns="http://www.w3.org/2000/svg" width="22" height="22" viewBox="0 0 22 22" fill="none">
  <path d="M11.3704 1.12695C8.26431 1.12695 5.74628 3.64498 5.74628 6.7511C5.74853 7.70471 5.99327 8.6422 6.22124 9.05872L11.3704 20.7236L16.2916 9.47527H16.289C16.7512 8.64167 16.994 7.70427 16.9945 6.7511C16.9946 3.64498 14.4765 1.12695 11.3704 1.12695ZM11.3704 3.93898C11.7397 3.93898 12.1054 4.01172 12.4466 4.15304C12.7877 4.29437 13.0977 4.50151 13.3589 4.76264C13.62 5.02377 13.8271 5.33377 13.9684 5.67495C14.1097 6.01613 14.1825 6.38181 14.1825 6.7511C14.1825 7.49689 13.8862 8.21215 13.3588 8.7395C12.8315 9.26686 12.1162 9.56313 11.3704 9.56313C10.6246 9.56313 9.90937 9.26686 9.38201 8.7395C8.85466 8.21215 8.55839 7.49689 8.55839 6.7511C8.55839 6.0053 8.85466 5.29005 9.38201 4.76269C9.90937 4.23533 10.6246 3.93907 11.3704 3.93907V3.93898Z" fill="#BB915B"/>
</svg>