<svg width="32" height="53" viewBox="0 0 32 53" fill="none" xmlns="http://www.w3.org/2000/svg">
<path d="M31.2907 52.9643L15.9123 36.6786L0.533844 52.9643V4.10713C0.533844 3.02732 0.9389 1.99174 1.6599 1.2282C2.38091 0.464658 3.3588 0.0357056 4.37846 0.0357056H27.4461C28.4658 0.0357056 29.4437 0.464658 30.1647 1.2282C30.8857 1.99174 31.2907 3.02732 31.2907 4.10713V52.9643Z" fill="url(#paint0_linear_196_2088)"/>
<path d="M15.0888 19.624H15.5688C16.5448 19.592 17.0408 18.952 17.0408 17.992C17.0408 17.976 17.0408 17.96 17.0408 17.944C17.0408 17.256 16.3848 16.52 15.3448 16.52C14.4808 16.52 13.9528 17 13.6168 17.352C13.4568 17.528 13.2648 17.592 13.0728 17.592C12.6248 17.592 12.1928 17.192 12.1928 16.728C12.1928 16.072 13.5208 14.904 15.4248 14.904C17.1048 14.904 18.7368 15.864 18.7368 17.976C18.7368 19.064 18.2248 19.912 17.4248 20.344C17.6648 20.456 19.3608 21.256 19.3608 23.432C19.3608 25.688 17.6328 27.288 15.2168 27.288C12.7848 27.288 11.3928 25.832 11.3928 25.128C11.3928 24.632 11.8408 24.184 12.3208 24.184C12.5288 24.184 12.7528 24.28 12.9448 24.488C13.6648 25.288 14.1768 25.592 15.2968 25.592C16.4648 25.592 17.6168 24.744 17.6168 23.4C17.6168 21.448 16.2248 21.256 15.4888 21.256C15.4408 21.256 15.3928 21.256 15.3448 21.256C15.2488 21.256 15.1688 21.272 15.1048 21.272C14.6088 21.272 14.2728 20.84 14.2728 20.44C14.2728 20.04 14.5928 19.624 15.0888 19.624Z" fill="white"/>
<defs>
<linearGradient id="paint0_linear_196_2088" x1="15.9123" y1="0.0357056" x2="15.9123" y2="52.9643" gradientUnits="userSpaceOnUse">
<stop stop-color="#88551A"/>
<stop offset="0.505208" stop-color="#B17154"/>
<stop offset="0.895833" stop-color="#88551A"/>
</linearGradient>
</defs>
</svg>
