<svg width="32" height="53" viewBox="0 0 32 53" fill="none" xmlns="http://www.w3.org/2000/svg">
<path d="M31.2907 52.9643L15.9123 36.6786L0.533844 52.9643V4.10713C0.533844 3.02732 0.9389 1.99174 1.6599 1.2282C2.38091 0.464658 3.3588 0.0357056 4.37846 0.0357056H27.4461C28.4658 0.0357056 29.4437 0.464658 30.1647 1.2282C30.8857 1.99174 31.2907 3.02732 31.2907 4.10713V52.9643Z" fill="url(#paint0_linear_196_2056)"/>
<path d="M17.0088 25.32H17.3768C17.3928 25.32 17.4248 25.32 17.4408 25.32C18.0968 25.32 18.4168 25.768 18.4168 26.2C18.4168 26.632 18.0808 27.064 17.4408 27.064C17.4248 27.064 17.3928 27.064 17.3768 27.064C16.9448 27.048 16.3208 27.032 15.6808 27.032C14.9288 27.032 14.1608 27.048 13.7608 27.064C13.1688 27.096 12.7368 26.76 12.7368 26.2C12.7368 25.752 13.0568 25.32 13.6808 25.32C13.7128 25.32 13.7288 25.32 13.7608 25.32C13.9368 25.336 14.2568 25.336 14.4968 25.336C14.8008 25.336 14.8648 25.24 14.8648 24.952C14.8808 23.16 14.9128 20.632 14.9128 19.048C14.9128 18.376 14.9128 17.88 14.8968 17.672C14.8808 17.176 14.7208 16.92 14.1928 16.904H13.8088C13.0888 16.952 12.8328 16.392 12.8328 15.96C12.8328 15.496 13.1048 15.048 13.6648 15.048C13.6968 15.048 13.7128 15.048 13.7288 15.048C13.9208 15.048 14.1288 15.064 14.3528 15.064C14.5608 15.064 14.7688 15.048 14.9128 15.048C14.9608 15.048 15.0088 15.048 15.0568 15.048C16.1128 15.048 16.7528 15.736 16.7528 16.712C16.7528 16.728 16.7528 16.728 16.7528 16.744C16.7528 17.032 16.7208 17.496 16.7208 18.088C16.7048 19.416 16.6568 21.368 16.6568 23.416C16.6568 23.912 16.6728 24.424 16.6728 24.92C16.6728 25.16 16.7528 25.32 17.0088 25.32Z" fill="white"/>
<defs>
<linearGradient id="paint0_linear_196_2056" x1="0.533844" y1="25.9811" x2="31.2907" y2="25.9811" gradientUnits="userSpaceOnUse">
<stop stop-color="#DBAB00"/>
<stop offset="0.322917" stop-color="#F2D15E"/>
<stop offset="0.5" stop-color="#FFD649"/>
<stop offset="0.697917" stop-color="#F2D15E"/>
<stop offset="1" stop-color="#DBAB00"/>
<stop offset="1" stop-color="#DBAB00"/>
</linearGradient>
</defs>
</svg>
