<svg width="32" height="55" viewBox="0 0 32 55" fill="none" xmlns="http://www.w3.org/2000/svg">
<path d="M31.2907 52.9643L15.9123 36.6786L0.533844 52.9643V4.10713C0.533844 3.02732 0.9389 1.99174 1.6599 1.2282C2.38091 0.464658 3.3588 0.0357056 4.37846 0.0357056H27.4461C28.4658 0.0357056 29.4437 0.464658 30.1647 1.2282C30.8857 1.99174 31.2907 3.02732 31.2907 4.10713V52.9643Z" fill="url(#paint0_linear_196_2072)"/>
<path d="M19.6328 24.68L19.3448 25.528C19.0088 26.52 18.4328 27.096 17.1208 27.096C17.0728 27.096 17.0088 27.096 16.9608 27.096C16.3048 27.08 15.6008 27.064 14.8968 27.064C13.9848 27.064 13.0888 27.08 12.3528 27.128C12.3368 27.128 12.3048 27.128 12.2888 27.128C11.6808 27.128 11.2808 26.68 11.2808 26.184C11.2808 25.736 11.5208 25.496 11.8408 25.304C12.0328 25.176 12.2568 25.016 12.4488 24.808C17.2008 19.784 17.2968 19.048 17.2968 18.2C17.2968 17.144 16.4968 16.472 15.5848 16.472C14.9128 16.472 14.1768 16.84 13.6808 17.704C13.4888 18.04 13.1848 18.168 12.8968 18.168C12.4328 18.168 11.9848 17.832 11.9848 17.352C11.9848 16.68 13.2808 14.888 15.5688 14.888C17.3928 14.888 19.1528 16.072 19.1528 18.024C19.1528 18.92 18.8008 19.944 17.9368 21.112C16.7848 22.664 15.3128 23.944 14.0008 25.352C13.9688 25.384 13.9528 25.416 13.9528 25.448C13.9528 25.48 13.9848 25.512 14.0808 25.512C14.6408 25.48 15.9048 25.512 16.6568 25.448C17.5688 25.368 17.6648 24.936 17.9048 24.2C18.0648 23.688 18.4328 23.48 18.8008 23.48C19.2488 23.48 19.6968 23.816 19.6968 24.344C19.6968 24.44 19.6808 24.552 19.6328 24.68Z" fill="white"/>
<defs>
<linearGradient id="paint0_linear_196_2072" x1="0.533844" y1="26.5" x2="31.2907" y2="26.5" gradientUnits="userSpaceOnUse">
<stop stop-color="#8E9EAB"/>
<stop offset="1" stop-color="#EEF2F3"/>
</linearGradient>
</defs>
</svg>
