<svg width="32" height="53" viewBox="0 0 32 53" fill="none" xmlns="http://www.w3.org/2000/svg">
<path d="M31.2907 52.9643L15.9123 36.6786L0.533844 52.9643V4.10713C0.533844 3.02732 0.9389 1.99174 1.6599 1.2282C2.38091 0.464658 3.3588 0.0357056 4.37846 0.0357056H27.4461C28.4658 0.0357056 29.4437 0.464658 30.1647 1.2282C30.8857 1.99174 31.2907 3.02732 31.2907 4.10713V52.9643Z" fill="#331102"/>
<path d="M19.4088 23.096C19.4088 25.16 17.8888 27.208 15.0408 27.208C13.2008 27.208 11.5368 26.312 11.5368 25.416C11.5368 24.936 11.9048 24.52 12.3528 24.52C12.5288 24.52 12.7208 24.584 12.9128 24.744C13.5688 25.32 14.3688 25.56 15.1048 25.56C16.8808 25.56 17.6968 24.28 17.6968 23.112C17.6968 22.024 16.9768 20.952 15.4728 20.952C15.0248 20.952 14.5928 21.048 14.1928 21.176C13.9688 21.256 13.8088 21.384 13.5688 21.4C13.4888 21.4 13.4088 21.416 13.3288 21.416C12.6248 21.416 12.1928 21.096 12.1928 20.344C12.1928 19.8 12.6888 16.712 12.7528 16.312C12.9128 15.448 13.2968 15.048 14.3048 15.048C14.3368 15.048 14.3688 15.048 14.4168 15.048C14.5448 15.048 14.9288 15.064 17.7608 15.064C18.3048 15.064 18.5928 15.48 18.5928 15.896C18.5928 16.296 18.3208 16.712 17.7768 16.712C17.3288 16.712 15.1848 16.696 14.6888 16.696C14.3688 16.696 14.2408 16.872 14.1928 17.16C14.1128 17.72 13.8728 19 13.8248 19.32C13.8248 19.368 13.8088 19.4 13.8088 19.432C13.8088 19.576 13.8728 19.624 13.9688 19.624C14.0808 19.624 14.2088 19.576 14.3368 19.544C14.6248 19.48 15.0568 19.432 15.5368 19.432C18.3368 19.432 19.4088 21.32 19.4088 23.096Z" fill="white"/>
</svg>
