<svg width="32" height="53" viewBox="0 0 32 53" fill="none" xmlns="http://www.w3.org/2000/svg">
<path d="M31.2907 52.9643L15.9123 36.6786L0.533844 52.9643V4.10713C0.533844 3.02732 0.9389 1.99174 1.6599 1.2282C2.38091 0.464658 3.3588 0.0357056 4.37846 0.0357056H27.4461C28.4658 0.0357056 29.4437 0.464658 30.1647 1.2282C30.8857 1.99174 31.2907 3.02732 31.2907 4.10713V52.9643Z" fill="#331102"/>
<path d="M16.3528 25.432V24.408C16.3528 24.296 16.2888 24.232 16.1768 24.232C14.6568 24.248 13.1368 24.248 12.9768 24.248C11.9048 24.248 11.3608 23.752 11.3608 23.048C11.3608 22.68 11.5048 22.264 11.8088 21.848C12.7688 20.488 15.4088 16.904 16.5928 15.32C16.7688 15.08 16.9928 14.984 17.2328 14.984C17.6968 14.984 18.1768 15.4 18.1768 15.896C18.1768 16.088 18.0968 16.296 17.9368 16.504C17.2168 17.384 14.2088 21.128 13.3128 22.36C13.2488 22.44 13.2168 22.504 13.2168 22.584C13.2168 22.792 13.4568 22.792 13.8088 22.792C14.3048 22.792 15.2168 22.776 16.1608 22.76C16.3048 22.76 16.3848 22.68 16.3848 22.536C16.3848 22.232 16.3848 21.96 16.3848 21.704C16.3848 21.08 16.3848 20.6 16.3688 20.28C16.3688 20.264 16.3688 20.232 16.3688 20.216C16.3688 19.672 16.7848 19.368 17.2008 19.368C17.6168 19.368 18.0328 19.672 18.0328 20.28C18.0328 21 18.0168 21.448 18.0008 22.504C18.0008 22.632 18.0168 22.696 18.1768 22.696C18.6888 22.68 19.0408 22.68 19.1048 22.68C19.1208 22.68 19.1368 22.68 19.1528 22.68C19.6648 22.68 19.9528 23.048 19.9528 23.416C19.9528 23.784 19.6648 24.184 19.0408 24.2C18.7848 24.216 18.5288 24.216 18.2728 24.216C18.1608 24.216 18.0008 24.232 18.0008 24.392C18.0008 24.648 18.0168 25.08 18.0168 25.384C18.0168 25.56 18.0808 25.624 18.4648 25.624C18.4808 25.624 18.4968 25.624 18.4968 25.624C19.1208 25.624 19.4248 25.992 19.4248 26.376C19.4248 26.744 19.1368 27.112 18.5448 27.112C18.5128 27.112 18.4968 27.112 18.4648 27.112C18.0328 27.096 17.5528 27.096 17.0888 27.096C16.6408 27.096 16.2088 27.096 15.8568 27.112C15.3928 27.128 14.9128 26.936 14.9128 26.376C14.9128 25.992 15.2008 25.624 15.7928 25.624C15.8088 25.624 15.8248 25.624 15.8568 25.624L16.0488 25.64C16.1928 25.64 16.3528 25.608 16.3528 25.432Z" fill="white"/>
</svg>
