<?xml version="1.0" standalone="no"?>
<!DOCTYPE svg PUBLIC "-//W3C//DTD SVG 20010904//EN"
 "http://www.w3.org/TR/2001/REC-SVG-20010904/DTD/svg10.dtd">
<svg version="1.0" xmlns="http://www.w3.org/2000/svg"
 width="276.000000pt" height="276.000000pt" viewBox="0 0 276.000000 276.000000"
 preserveAspectRatio="xMidYMid meet">
<metadata>
Created by potrace 1.14, written by Peter Selinger 2001-2017
</metadata>
<g transform="translate(0.000000,276.000000) scale(0.100000,-0.100000)"
fill="#000000" stroke="none">
<path d="M2502 2158 c-13 -16 -44 -102 -124 -345 -46 -140 -67 -193 -78 -193
-13 0 -16 13 -14 70 1 39 -2 67 -7 64 -5 -3 -7 -10 -4 -15 4 -5 -5 -9 -18 -9
-26 0 -40 20 -31 45 4 8 1 15 -6 15 -7 0 -10 -11 -8 -27 3 -24 -1 -28 -22 -28
-20 0 -25 5 -24 23 1 12 -3 22 -8 22 -5 0 -8 -6 -7 -12 4 -30 -2 -38 -27 -38
-14 0 -23 4 -19 10 3 6 1 10 -4 10 -6 0 -11 -4 -11 -10 0 -5 -24 -10 -54 -10
-57 0 -69 -10 -61 -51 3 -13 0 -28 -6 -36 -8 -9 -8 -13 -1 -13 6 0 14 5 17 10
3 6 17 8 31 6 15 -3 22 -1 18 5 -3 6 -8 8 -11 5 -11 -11 -41 14 -38 31 2 10 4
21 4 26 1 4 37 6 81 5 80 -1 87 -5 81 -40 0 -5 4 -8 9 -8 6 0 8 11 6 25 -4 21
-1 25 20 25 25 0 27 -6 24 -51 -1 -22 3 -26 27 -25 45 1 42 -18 -4 -26 -45 -7
-84 -24 -95 -42 -5 -8 -8 -7 -8 2 0 6 -5 12 -10 12 -6 0 -9 -5 -8 -11 2 -6 -5
-13 -15 -14 -9 -2 -15 1 -11 6 3 5 1 9 -4 9 -9 0 -23 -97 -24 -172 -1 -36 -3
-38 -34 -38 -23 0 -34 5 -37 18 -3 11 -5 9 -6 -8 -1 -24 2 -25 38 -22 38 4 41
2 61 -38 l21 -41 -58 1 c-111 3 -117 2 -138 -30 -18 -27 -25 -30 -75 -30 l-55
0 2 93 c1 50 2 104 2 118 l1 27 95 -1 c93 -1 100 -3 96 -34 -1 -7 2 -13 7 -13
12 0 14 78 3 85 -5 2 -7 20 -4 40 2 19 -1 35 -5 35 -5 0 -8 -12 -6 -26 2 -20
0 -24 -9 -15 -7 7 -12 53 -13 119 l-1 108 26 -1 c20 0 26 5 27 22 1 27 -34 43
-47 22 -7 -11 -9 -10 -9 4 0 14 -9 17 -50 17 -46 0 -50 -2 -50 -24 0 -14 4
-27 9 -30 4 -3 6 6 3 19 -4 23 -2 25 37 25 22 0 41 -3 42 -7 0 -5 1 -59 2
-121 l2 -113 -21 26 c-23 29 -74 59 -74 44 0 -6 -3 -8 -7 -6 -5 3 -8 41 -7 86
1 44 -2 78 -6 76 -4 -3 -7 -36 -5 -75 1 -38 -2 -75 -5 -81 -5 -7 -32 -10 -73
-7 -60 3 -67 1 -76 -19 l-10 -23 -25 25 c-33 33 -86 34 -120 1 -15 -13 -26
-31 -26 -40 0 -14 -20 -16 -175 -16 l-174 0 -16 -30 c-22 -43 -32 -37 -31 20
1 41 4 50 18 50 21 0 23 11 6 28 -7 7 -13 16 -13 20 0 4 -31 53 -70 109 l-69
102 -144 -1 -144 -1 -37 -51 c-21 -28 -43 -60 -49 -71 -10 -19 -11 -19 -20 4
-6 16 -4 38 6 65 16 46 10 127 -12 181 -20 46 -82 112 -130 138 -58 31 -184
31 -241 0 -159 -85 -200 -279 -89 -422 19 -24 34 -51 34 -60 0 -35 55 -192 97
-275 103 -207 229 -360 408 -494 126 -95 306 -182 450 -218 17 -4 35 -8 40
-10 97 -25 385 -45 385 -27 0 4 -46 8 -103 7 -129 -1 -312 29 -397 64 l-25 11
25 2 c14 1 0 5 -30 9 -30 4 -84 21 -120 38 l-65 31 157 0 157 1 3 142 3 142
-42 60 c-42 60 -43 62 -43 149 l0 88 108 -3 c102 -3 107 -4 107 -25 0 -12 2
-24 5 -27 3 -3 5 22 5 55 -3 100 33 146 101 128 43 -12 55 -41 58 -147 4 -114
-6 -132 -69 -132 -47 0 -56 -11 -51 -60 3 -31 -13 -80 -25 -80 -5 0 -9 3 -10
8 0 4 -2 42 -3 85 -2 42 -5 80 -8 83 -3 3 -5 -35 -3 -85 2 -60 -1 -91 -9 -94
-6 -2 -32 -3 -58 -2 -27 1 -48 -1 -48 -5 0 -4 26 -6 58 -5 75 2 91 -3 87 -26
-2 -10 1 -19 7 -19 5 0 8 6 5 13 -3 7 0 22 7 34 18 34 120 152 131 152 6 0 38
-36 72 -80 l63 -81 155 1 154 2 -1 -46 c0 -36 -4 -45 -18 -45 -13 0 -17 5 -13
21 4 12 0 25 -8 30 -19 12 -86 11 -94 -1 -9 -15 -12 -80 -3 -80 4 0 8 18 8 40
0 37 2 40 28 40 27 0 28 -3 29 -44 1 -44 0 -45 -36 -49 -28 -3 -25 -4 17 -5
28 -1 52 -4 52 -5 0 -2 -9 -29 -19 -60 -11 -30 -17 -57 -15 -60 3 -2 -47 -4
-111 -5 -121 0 -121 0 -116 48 2 13 0 13 -8 1 -5 -8 -8 -22 -6 -32 3 -14 -2
-17 -23 -15 -29 4 -29 3 -31 174 l-1 62 -75 0 -75 0 -1 -87 c-1 -123 -3 -137
-14 -143 -5 -3 -11 5 -13 18 -2 12 -7 20 -12 17 -4 -3 -6 -15 -3 -26 4 -16 2
-20 -8 -17 -10 3 -14 21 -13 66 1 34 -2 59 -6 57 -7 -5 -30 48 -30 68 0 9 -29
67 -34 67 -2 0 -16 -33 -31 -74 -31 -85 -30 -127 3 -141 24 -11 30 -40 10 -48
-7 -3 126 -6 295 -6 296 -1 310 -2 338 -22 16 -11 27 -25 24 -30 -4 -5 -115
-9 -257 -9 -138 0 -249 -3 -245 -6 3 -4 118 -6 254 -6 216 0 244 -2 217 -14
-39 -16 -221 -54 -262 -54 -17 0 -33 -4 -36 -9 -13 -21 235 29 345 69 139 52
351 171 334 188 -3 4 -9 2 -13 -4 -23 -33 -271 -164 -311 -164 -23 0 -23 28 1
36 37 11 43 53 18 119 l-10 26 170 -2 c167 -2 170 -1 202 23 51 39 173 169
246 263 5 6 21 35 37 65 17 30 33 57 36 60 12 10 39 70 32 70 -5 0 -25 -32
-46 -70 -21 -39 -39 -70 -40 -70 -2 0 -3 29 -4 65 0 52 3 65 15 65 33 0 88 26
118 55 94 92 92 143 -18 455 -22 63 -41 122 -43 130 -1 8 -9 31 -17 50 -8 19
-21 53 -29 74 -16 43 -30 54 -47 34z m-1498 -411 c25 -37 47 -73 49 -79 1 -9
-28 -12 -105 -13 -60 0 -108 2 -108 4 0 10 106 161 111 158 4 -1 28 -32 53
-70z m1271 -59 c1 -16 -2 -29 -7 -29 -38 -6 -42 -3 -43 29 -1 29 2 33 24 30
20 -2 25 -9 26 -30z m-2065 -66 c19 -6 49 -13 65 -15 l30 -4 2 -149 c3 -210 6
-215 13 -19 l5 170 25 3 c31 3 103 33 112 46 23 34 11 -20 -38 -165 -67 -198
-75 -253 -45 -304 23 -39 26 -55 11 -55 -14 0 -70 86 -70 109 0 12 -5 20 -12
18 -27 -5 -168 319 -168 388 0 16 2 17 18 3 9 -9 33 -20 52 -26z m608 -179 c3
-223 6 -215 -67 -203 -38 6 -41 11 -44 107 -1 35 -6 63 -10 63 -5 0 -6 -4 -2
-9 3 -5 1 -12 -4 -15 -11 -7 -9 13 2 32 5 7 3 12 -7 12 -9 0 -16 1 -16 3 0 1
-8 25 -18 53 -11 27 -17 59 -16 69 2 11 -2 25 -9 30 -19 14 -29 47 -18 54 5 3
53 6 108 6 l98 -1 3 -201z m38 172 c12 -11 40 -15 115 -15 109 0 101 6 102
-70 0 -20 -3 -50 -6 -68 -6 -28 -11 -32 -37 -32 -27 0 -30 -3 -30 -30 0 -16 5
-30 11 -30 7 0 10 -32 8 -94 l-3 -94 42 -56 c31 -41 42 -64 42 -91 0 -19 -3
-35 -7 -36 -13 -1 -135 -1 -180 0 -43 1 -43 1 -43 38 0 29 11 52 56 110 45 59
59 71 70 62 8 -7 14 -7 14 -1 0 17 -24 30 -55 30 -16 0 -51 0 -77 1 l-48 1 0
195 c0 107 3 195 6 195 3 0 12 -7 20 -15z m857 -70 c12 -22 28 -46 35 -53 6
-7 13 -16 13 -20 4 -25 5 -230 1 -241 -10 -28 -20 14 -19 84 l1 70 -62 3 c-58
3 -63 5 -78 33 -8 17 -13 36 -11 43 13 33 80 127 88 124 6 -2 20 -21 32 -43z
m-696 -157 c-3 -7 -5 -2 -5 12 0 14 2 19 5 13 2 -7 2 -19 0 -25z m714 -33 c1
-34 1 -92 0 -107 -1 -10 -3 -10 -9 -1 -4 6 -7 35 -6 62 2 54 -2 57 -58 52 -9
-1 -19 3 -23 9 -4 6 12 10 44 10 47 0 51 -2 52 -25z m779 -78 c0 -72 -3 -84
-27 -116 -64 -84 -160 -185 -186 -194 -11 -4 -15 -12 -11 -19 4 -7 3 -9 -1 -5
-12 10 -17 127 -6 127 4 0 7 -23 6 -50 -1 -28 0 -48 4 -45 3 3 6 39 6 78 1 40
5 78 9 85 5 9 0 22 -14 37 -18 19 -20 26 -9 29 8 2 30 9 49 15 44 14 105 72
121 115 10 27 16 32 35 28 23 -4 24 -8 24 -85z m-900 23 c0 -54 -2 -60 -21
-60 -15 0 -20 6 -19 23 7 76 5 77 -60 76 -36 -1 -60 -6 -61 -13 -1 -6 -1 -28
-2 -48 0 -43 -16 -52 -19 -10 -1 29 -1 60 1 80 1 8 26 12 91 12 l90 0 0 -60z
m-130 -5 c0 -22 -5 -35 -13 -35 -9 0 -12 11 -9 35 2 19 8 35 13 35 5 0 9 -16
9 -35z m47 0 c-1 -25 -6 -35 -17 -33 -29 6 -25 68 4 68 11 0 14 -10 13 -35z
m31 0 c0 -23 -4 -35 -11 -32 -7 2 -11 11 -11 20 1 10 2 24 3 32 2 31 19 13 19
-20z m561 -70 c43 -43 37 -55 -6 -15 -18 17 -35 30 -39 30 -4 0 -17 -11 -30
-25 -13 -14 -29 -25 -36 -25 -7 1 5 16 26 35 22 19 42 35 45 35 3 0 21 -16 40
-35z m-632 19 c-3 -3 -12 -4 -19 -1 -8 3 -5 6 6 6 11 1 17 -2 13 -5z m40 0
c-3 -3 -12 -4 -19 -1 -8 3 -5 6 6 6 11 1 17 -2 13 -5z m600 -60 c12 -12 19
-25 16 -28 -8 -8 -128 -8 -135 0 -4 3 10 21 30 39 39 36 40 36 89 -11z m-757
10 c0 -10 -60 -76 -61 -67 0 4 -2 19 -4 33 -1 14 -1 28 2 33 5 8 63 10 63 1z
m-640 -24 c-6 -11 -12 -20 -14 -20 -2 0 -2 9 1 20 3 11 9 20 15 20 5 0 4 -9
-2 -20z m25 -40 c-8 -14 -35 -13 -35 1 0 6 7 8 16 5 12 -5 14 -1 9 17 -5 19
-4 20 5 4 6 -9 8 -22 5 -27z m1505 -16 c0 -10 -5 -14 -15 -10 -9 3 -18 -1 -21
-9 -5 -13 -8 -13 -21 0 -17 17 -29 19 -38 5 -3 -5 -1 -10 4 -10 6 0 11 -8 12
-17 0 -16 1 -16 8 1 7 18 8 18 14 3 3 -9 3 -17 -1 -18 -4 0 -18 -2 -32 -5 -15
-2 -20 -1 -13 4 10 6 9 13 -3 30 -13 19 -24 22 -85 22 -38 0 -69 -3 -69 -8 0
-4 -30 -7 -67 -7 -64 0 -88 9 -77 27 3 4 95 8 205 8 176 0 199 -2 199 -16z
m-1490 -4 c0 -5 -19 -9 -42 -9 l-43 2 40 7 c22 4 41 8 43 9 1 0 2 -3 2 -9z
m1517 -15 c0 -8 -4 -12 -9 -9 -4 3 -8 9 -8 15 0 5 4 9 8 9 5 0 9 -7 9 -15z
m-377 -13 c0 -4 9 -8 20 -9 13 -1 18 2 14 10 -5 8 -3 8 7 0 10 -10 10 -16 1
-25 -7 -7 -12 -15 -12 -18 0 -10 39 -9 45 1 4 5 1 9 -4 9 -6 0 -10 10 -10 23
1 17 2 18 6 4 2 -9 8 -15 13 -12 9 6 8 -8 -4 -42 -4 -13 -12 -23 -17 -23 -6 0
-8 4 -4 9 3 5 0 13 -6 17 -7 4 -9 3 -5 -4 3 -6 2 -13 -3 -16 -5 -4 -12 -2 -16
4 -3 5 -11 10 -16 10 -6 0 -4 -7 5 -15 17 -17 47 -20 62 -5 7 7 10 -7 10 -42
l-1 -53 -55 0 c-49 0 -55 2 -60 25 -9 34 0 62 16 56 7 -3 16 -1 19 4 4 6 2 10
-4 10 -5 0 -9 9 -8 19 1 12 6 17 15 13 10 -3 13 0 10 9 -3 8 -11 13 -17 12 -6
-2 -11 4 -11 13 0 9 -5 12 -12 8 -7 -4 -8 -3 -4 4 8 14 26 16 26 4z m341 -1
c7 11 9 10 9 -3 0 -11 -8 -18 -20 -18 -14 0 -18 5 -13 17 5 12 8 13 11 4 4
-11 6 -11 13 0z m-1721 -62 l0 -51 -27 29 c-16 16 -37 39 -47 51 l-19 22 46 0
47 0 0 -51z m70 -24 c0 -41 -4 -75 -8 -75 -5 0 -18 9 -29 19 -16 15 -20 32
-20 73 0 52 0 54 28 56 l29 2 0 -75z m257 40 l2 -35 -125 0 -124 0 0 35 0 34
123 0 122 0 2 -34z m1254 13 c3 -41 -1 -130 -7 -139 -3 -5 -20 -8 -37 -6 l-32
3 0 77 -1 77 38 0 c23 0 38 -5 39 -12z m140 -8 c5 0 8 -10 8 -22 -1 -17 -2
-19 -6 -5 -2 9 -9 17 -14 17 -6 0 -7 -4 -4 -10 3 -5 1 -10 -5 -10 -7 0 -9 7
-6 16 4 10 2 14 -6 11 -7 -2 -12 -10 -10 -16 2 -11 -10 -15 -35 -12 -7 1 -13
-3 -13 -9 0 -13 37 -13 45 0 4 6 14 5 28 -3 30 -16 36 -27 31 -51 -6 -31 -34
-47 -74 -43 -35 3 -35 3 -36 52 -2 57 10 87 30 79 8 -3 17 0 21 6 4 6 14 9 22
6 8 -3 19 -6 24 -6z m-364 -32 c-3 -7 -5 -2 -5 12 0 14 2 19 5 13 2 -7 2 -19
0 -25z m-398 -113 c-1 -63 -4 -115 -9 -115 -13 0 -16 20 -15 100 0 67 -2 76
-20 81 -11 3 -30 3 -42 1 -21 -4 -23 -11 -24 -61 -1 -31 0 -71 1 -90 1 -22 -2
-31 -9 -27 -7 5 -11 49 -11 117 l0 109 64 0 65 0 0 -115z m-471 69 c13 -9 22
-26 22 -42 l0 -26 -16 22 c-17 24 -46 29 -62 9 -6 -7 -12 -40 -14 -74 -4 -79
-17 -68 -19 16 -2 59 0 66 25 88 32 27 35 28 64 7z m-186 -23 c27 -1 27 -1 25
-73 l-2 -73 -42 -3 c-28 -2 -52 4 -75 18 l-33 20 56 0 c41 0 58 4 63 15 3 8 1
15 -4 15 -6 0 -10 -5 -10 -11 0 -14 -42 -7 -48 9 -2 8 8 12 31 12 35 0 37 4
28 53 0 4 -44 7 -96 7 -89 0 -95 -1 -95 -21 0 -11 -4 -17 -10 -14 -5 3 -10 15
-10 25 0 16 9 19 53 22 28 2 72 2 97 1 25 -1 57 -2 72 -2z m268 -77 c0 -75 -6
-86 -38 -65 -11 7 -11 9 0 13 9 4 12 21 10 57 -2 28 -8 48 -13 45 -5 -3 -9 -2
-9 2 0 11 34 33 42 28 5 -3 8 -39 8 -80z m-199 61 c1 -5 5 -15 9 -20 5 -6 5
-17 0 -25 -14 -21 -12 -32 3 -24 10 6 10 4 0 -7 -7 -7 -13 -20 -13 -28 0 -14
1 -14 10 -1 7 12 9 11 8 -6 -1 -13 -10 -21 -25 -22 -22 -2 -23 1 -23 74 0 63
3 75 16 72 8 -2 15 -7 15 -13z m117 -52 l3 -53 -30 0 c-30 0 -31 1 -31 48 0
55 5 64 35 60 17 -3 20 -11 23 -55z m-338 27 c0 -9 -8 -16 -20 -16 -12 0 -20
7 -20 16 0 9 8 16 20 16 12 0 20 -7 20 -16z m68 -2 c2 -10 -5 -15 -22 -14 -29
2 -41 11 -32 24 9 14 51 7 54 -10z m62 1 c0 -11 -6 -16 -17 -14 -10 2 -21 4
-25 4 -21 2 -5 27 17 27 17 0 25 -6 25 -17z m239 -25 c4 3 8 -1 8 -9 0 -8 -4
-12 -8 -9 -4 2 -10 -6 -12 -18 -2 -13 -5 -5 -5 17 0 22 2 34 5 27 2 -6 8 -10
12 -8z m-299 -20 c0 -17 -46 -19 -56 -3 -3 6 -1 15 6 19 17 11 50 0 50 -16z
m-70 6 c0 -5 -2 -10 -4 -10 -3 0 -8 5 -11 10 -3 6 -1 10 4 10 6 0 11 -4 11
-10z m316 -62 c3 -4 -1 -5 -10 -4 -8 1 -18 5 -22 8 -3 4 1 5 10 4 8 -1 18 -5
22 -8z"/>
<path d="M943 1753 c-7 -3 -13 -18 -13 -34 0 -24 4 -29 25 -29 14 0 25 3 26 8
0 4 2 15 4 25 4 19 -22 37 -42 30z m30 -31 c-6 -23 -32 -25 -28 -3 2 9 4 17 4
19 1 1 7 2 15 2 9 0 12 -7 9 -18z"/>
<path d="M660 1540 c0 -47 2 -50 25 -50 23 0 25 3 25 50 0 47 -2 50 -25 50
-23 0 -25 -3 -25 -50z m37 -22 c-2 -13 -4 -3 -4 22 0 25 2 35 4 23 2 -13 2
-33 0 -45z"/>
<path d="M734 1576 c-3 -8 -4 -29 -2 -48 2 -25 8 -34 25 -36 24 -4 31 14 25
66 -3 24 -9 32 -23 32 -11 0 -22 -6 -25 -14z m33 -58 c-2 -13 -4 -3 -4 22 0
25 2 35 4 23 2 -13 2 -33 0 -45z"/>
<path d="M730 1381 c0 -48 2 -51 26 -51 24 0 25 2 22 48 -3 40 -6 47 -25 50
-21 3 -23 0 -23 -47z m39 -3 c0 -31 -3 -37 -8 -24 -7 18 -3 66 5 66 2 0 4 -19
3 -42z"/>
<path d="M860 1524 c0 -31 3 -35 23 -32 17 2 23 11 25 36 3 29 1 32 -22 32
-23 0 -26 -4 -26 -36z m38 6 c-3 -23 -20 -28 -27 -9 -2 7 1 9 8 5 7 -5 9 -1 5
8 -3 9 -1 16 6 16 6 0 10 -9 8 -20z"/>
<path d="M936 1542 c-10 -30 4 -53 28 -50 31 4 30 62 -1 66 -14 2 -23 -3 -27
-16z m42 -17 c-1 -14 -6 -25 -10 -25 -4 0 -8 11 -8 25 0 14 4 25 10 25 5 0 9
-11 8 -25z"/>
<path d="M1011 1543 c8 -9 9 -14 3 -10 -7 4 -10 -2 -6 -18 5 -26 10 -29 36
-19 18 7 22 34 5 34 -5 0 -8 -4 -4 -9 3 -5 1 -12 -5 -16 -6 -4 -10 5 -10 20 0
20 4 26 16 21 8 -3 12 -2 9 4 -3 6 -18 10 -32 10 -23 0 -24 -2 -12 -17z"/>
<path d="M857 1410 c-6 -22 17 -59 30 -46 4 5 3 11 -3 13 -13 4 -7 43 7 43 4
0 10 -12 12 -27 4 -26 4 -26 6 5 1 27 -2 32 -23 32 -15 0 -26 -7 -29 -20z"/>
<path d="M937 1424 c-15 -15 -7 -52 13 -57 23 -6 43 15 38 40 -3 18 -38 30
-51 17z m43 -30 c0 -8 -4 -14 -10 -14 -5 0 -10 9 -10 21 0 11 5 17 10 14 6 -3
10 -13 10 -21z"/>
<path d="M957 1143 c-4 -3 -7 -30 -7 -60 l0 -53 34 0 c19 0 36 6 39 13 9 23
-2 90 -15 99 -16 9 -42 10 -51 1z m23 -28 c0 -14 -4 -25 -10 -25 -8 0 -8 23
-1 48 4 12 11 -3 11 -23z m34 -16 c-11 -18 -24 -8 -24 19 1 26 1 26 15 8 8
-10 12 -23 9 -27z m-34 -40 c0 -11 -4 -17 -10 -14 -5 3 -10 13 -10 21 0 8 5
14 10 14 6 0 10 -9 10 -21z m33 7 c6 -15 -1 -26 -15 -26 -4 0 -8 9 -8 20 0 23
15 27 23 6z"/>
<path d="M1655 1532 c-26 -19 -1 -58 29 -46 18 7 22 24 6 24 -5 0 -10 -4 -10
-10 0 -5 -4 -10 -10 -10 -5 0 -10 9 -10 21 0 16 4 19 21 14 15 -5 19 -4 15 4
-8 13 -26 14 -41 3z"/>
<path d="M954 2098 c-12 -5 -27 -21 -35 -34 -7 -13 -18 -24 -24 -24 -15 0 -45
-33 -45 -48 0 -22 19 -12 22 11 2 17 11 23 37 25 23 2 30 6 21 12 -10 6 -7 14
14 35 23 23 34 26 62 22 19 -3 42 -13 51 -23 11 -11 18 -13 21 -5 2 6 8 9 12
6 5 -3 6 -13 3 -22 -4 -10 -2 -14 5 -10 12 8 62 -12 62 -25 0 -4 1 -11 3 -15
1 -5 -63 -10 -143 -13 l-145 -6 147 -2 c93 -1 149 2 153 8 9 14 -22 60 -40 60
-8 0 -18 7 -23 17 -5 9 -18 17 -28 18 -11 1 -29 7 -41 13 -26 14 -60 14 -89 0z"/>
<path d="M1928 1927 c-176 -78 -169 -83 112 -79 154 2 230 -1 230 -8 0 -5 5
-10 11 -10 5 0 8 4 5 9 -3 5 2 12 11 15 10 4 13 10 7 16 -13 13 -231 110 -246
110 -7 -1 -66 -24 -130 -53z"/>
<path d="M1570 1910 c0 -6 9 -10 19 -10 12 0 25 -12 33 -30 7 -17 18 -28 24
-26 6 2 18 -4 27 -14 15 -17 14 -19 -6 -23 -18 -4 -17 -5 6 -6 34 -1 34 13 1
42 -15 12 -36 31 -48 43 -24 24 -56 38 -56 24z"/>
<path d="M1525 1899 c-4 -6 -12 -8 -19 -6 -17 7 -101 -67 -92 -81 5 -8 43 -11
119 -10 l112 2 -108 3 c-94 3 -108 6 -105 20 2 9 16 21 32 26 39 13 103 57 83
57 -9 0 -19 -5 -22 -11z"/>
<path d="M1810 1820 c0 -5 5 -10 10 -10 6 0 10 5 10 10 0 6 -4 10 -10 10 -5 0
-10 -4 -10 -10z"/>
<path d="M2099 1818 c-7 -16 -6 -57 2 -52 5 3 8 13 7 22 -4 20 31 29 43 10 8
-11 10 -11 18 1 6 9 18 11 36 7 17 -4 24 -3 20 4 -5 8 -122 16 -126 8z"/>
<path d="M2273 1805 c0 -8 4 -15 9 -15 4 0 8 7 8 15 0 8 -4 15 -8 15 -5 0 -9
-7 -9 -15z"/>
<path d="M2025 1802 c-17 -12 -11 -46 9 -50 24 -5 37 17 25 40 -10 19 -18 22
-34 10z"/>
<path d="M1840 1730 c0 -11 4 -20 9 -20 5 0 7 9 4 20 -3 11 -7 20 -9 20 -2 0
-4 -9 -4 -20z"/>
<path d="M2090 1690 c0 -5 5 -10 11 -10 5 0 7 5 4 10 -3 6 -8 10 -11 10 -2 0
-4 -4 -4 -10z"/>
<path d="M2080 1661 c-8 -6 -18 -7 -22 -5 -4 3 -8 1 -8 -4 0 -5 14 -9 30 -8
17 0 30 6 30 13 0 15 -9 16 -30 4z"/>
<path d="M2126 1652 c-2 -4 6 -8 20 -8 13 0 24 4 24 8 0 4 -9 8 -19 8 -11 0
-22 -4 -25 -8z"/>
<path d="M2180 1650 c0 -5 5 -10 11 -10 5 0 7 5 4 10 -3 6 -8 10 -11 10 -2 0
-4 -4 -4 -10z"/>
<path d="M1967 1600 c3 -11 7 -20 9 -20 2 0 4 9 4 20 0 11 -4 20 -9 20 -5 0
-7 -9 -4 -20z"/>
<path d="M2004 1598 c-13 -20 -9 -61 5 -66 8 -3 11 0 7 6 -7 12 20 10 31 -3 4
-4 2 -5 -4 -1 -9 5 -11 2 -7 -11 5 -15 4 -16 -5 -3 -8 11 -11 12 -11 2 0 -7
-6 -10 -12 -7 -7 4 -4 -1 6 -9 11 -9 24 -12 28 -8 13 13 17 92 6 92 -6 0 -8
-6 -5 -13 3 -7 -3 -13 -13 -14 -10 -1 -21 5 -24 13 -3 9 1 14 14 14 10 0 22 5
25 10 3 6 -3 10 -14 10 -11 0 -23 -6 -27 -12z"/>
<path d="M2070 1599 c0 -6 7 -8 16 -5 8 3 12 2 9 -3 -3 -5 0 -13 7 -17 7 -4
10 -4 6 1 -4 4 -3 14 3 22 9 10 6 13 -15 13 -14 0 -26 -5 -26 -11z"/>
<path d="M1300 1450 c-37 -37 -25 -47 45 -42 51 4 55 12 23 42 -27 25 -43 25
-68 0z m58 -2 c21 -21 13 -28 -30 -28 l-43 1 24 19 c27 23 33 24 49 8z"/>
<path d="M1790 1390 c0 -11 5 -20 10 -20 6 0 10 -5 10 -11 0 -5 -4 -7 -10 -4
-5 3 -10 1 -10 -4 0 -6 5 -11 10 -11 6 0 10 -5 10 -11 0 -5 -4 -7 -10 -4 -5 3
-10 1 -10 -4 0 -6 11 -11 24 -11 21 0 23 4 22 50 0 45 -2 50 -23 50 -16 0 -23
-6 -23 -20z"/>
<path d="M1854 1384 c-4 -15 -2 -30 5 -37 9 -9 11 -8 6 5 -4 9 -2 25 3 34 8
14 10 8 9 -23 -1 -30 -4 -40 -14 -36 -7 3 -13 1 -13 -5 0 -10 49 -23 51 -13 4
31 4 78 1 89 -8 23 -41 13 -48 -14z"/>
<path d="M1920 1400 c0 -6 5 -8 10 -5 6 3 10 -4 10 -17 0 -16 -3 -19 -9 -10
-6 11 -10 10 -15 -4 -4 -9 -1 -22 5 -28 9 -8 10 -8 5 2 -4 6 -2 12 3 12 15 0
14 -27 -1 -32 -8 -3 -6 -7 5 -11 22 -8 39 24 34 66 -2 24 -9 33 -25 35 -12 2
-22 -2 -22 -8z"/>
<path d="M1285 1357 c-17 -9 -20 -27 -4 -27 5 0 7 5 4 10 -3 6 1 10 9 10 12 0
16 -10 16 -36 0 -31 -3 -35 -20 -29 -11 4 -20 2 -20 -4 0 -6 9 -11 20 -11 11
0 20 -7 20 -15 0 -18 -12 -19 -28 -3 -9 9 -12 8 -12 -5 0 -14 10 -17 65 -17
l65 0 0 65 c0 45 -4 65 -12 66 -61 4 -91 3 -103 -4z m103 -41 c-1 -31 -4 -33
-32 -32 -27 1 -31 5 -34 34 -3 31 -2 32 32 32 34 0 35 -2 34 -34z m-34 -61 c4
-10 -1 -15 -14 -15 -11 0 -20 7 -20 15 0 8 6 15 14 15 8 0 16 -7 20 -15z m36
-1 c0 -9 -5 -14 -12 -12 -18 6 -21 28 -4 28 9 0 16 -7 16 -16z"/>
<path d="M1350 1322 c0 -12 4 -22 9 -22 10 0 9 26 -2 36 -4 4 -7 -2 -7 -14z"/>
<path d="M1106 1330 c-30 -5 -32 -12 -27 -115 1 -12 15 -15 67 -15 39 0 63 4
59 10 -3 5 -12 7 -20 3 -10 -3 -15 1 -15 12 0 12 5 15 19 10 14 -4 19 -1 17 9
-3 19 -16 34 -16 18 0 -7 -4 -12 -10 -12 -5 0 -10 16 -10 35 0 19 5 35 10 35
9 0 14 -14 11 -32 0 -5 3 -8 8 -8 5 0 8 11 7 24 -1 20 -7 25 -36 28 -20 2 -48
1 -64 -2z m8 -37 c-1 -16 -2 -31 -3 -35 -1 -5 -5 -8 -11 -8 -5 0 -10 16 -10
35 0 23 5 35 13 35 9 0 13 -10 11 -27z m46 -8 c0 -24 -5 -35 -15 -35 -10 0
-15 11 -15 35 0 24 5 35 15 35 10 0 15 -11 15 -35z m-43 -60 c0 -8 -6 -15 -14
-15 -7 0 -13 7 -13 15 0 8 6 15 13 15 8 0 14 -7 14 -15z m43 0 c0 -8 -7 -15
-15 -15 -8 0 -15 7 -15 15 0 8 7 15 15 15 8 0 15 -7 15 -15z"/>
<path d="M1981 1333 c0 -6 -4 -20 -7 -30 -5 -14 -4 -15 5 -7 7 7 11 20 8 30
-3 11 -5 14 -6 7z"/>
<path d="M1270 1310 c0 -5 5 -10 11 -10 5 0 7 5 4 10 -3 6 -8 10 -11 10 -2 0
-4 -4 -4 -10z"/>
<path d="M1240 1275 c0 -8 4 -15 8 -15 5 0 9 7 9 15 0 8 -4 15 -9 15 -4 0 -8
-7 -8 -15z"/>
<path d="M1406 1143 c-13 -13 -6 -53 9 -53 8 0 15 3 16 8 0 4 2 15 4 24 3 17
-18 32 -29 21z"/>
<path d="M1311 1002 c1 -26 1 -52 -2 -58 -2 -5 -2 -31 2 -59 6 -50 6 -50 8
-10 2 22 3 68 3 103 l0 62 102 0 103 0 -1 -119 c-1 -66 1 -118 5 -115 3 2 6
58 6 124 l-1 120 -114 0 -113 0 2 -48z"/>
<path d="M1594 1006 c-3 -8 -4 -23 -1 -33 3 -12 5 -8 6 10 1 23 5 27 29 27 16
0 29 -6 29 -12 0 -7 2 -17 3 -23 1 -5 2 -20 1 -32 -1 -19 -7 -23 -31 -23 -20
0 -30 5 -30 15 0 8 -4 15 -9 15 -5 0 -7 -9 -4 -20 5 -17 14 -20 60 -20 l54 0
-3 53 -3 52 -48 3 c-35 2 -49 -1 -53 -12z"/>
<path d="M1554 980 c0 -16 3 -30 6 -30 4 0 7 14 8 30 0 17 -3 30 -7 30 -4 0
-7 -13 -7 -30z"/>
<path d="M1279 993 c-5 -41 -5 -65 2 -69 5 -3 8 13 7 35 -1 36 -6 54 -9 34z"/>
<path d="M1559 933 c-5 -34 -4 -83 1 -83 3 0 6 20 6 45 0 39 -4 60 -7 38z"/>
<path d="M1153 704 c3 -3 22 -6 42 -6 20 0 39 3 42 6 4 3 -15 6 -42 6 -27 0
-46 -3 -42 -6z"/>
</g>
</svg>
