<svg width="24" height="10" viewBox="0 0 24 10" fill="none" xmlns="http://www.w3.org/2000/svg">
<path d="M5.82955 2.45455C5.77841 2.02273 5.57102 1.6875 5.20739 1.44886C4.84375 1.21023 4.39773 1.09091 3.86932 1.09091C3.48295 1.09091 3.14489 1.15341 2.85511 1.27841C2.56818 1.40341 2.34375 1.57528 2.18182 1.79403C2.02273 2.01278 1.94318 2.26136 1.94318 2.53977C1.94318 2.77273 1.99858 2.97301 2.10938 3.14062C2.22301 3.3054 2.3679 3.44318 2.54403 3.55398C2.72017 3.66193 2.90483 3.75142 3.09801 3.82244C3.29119 3.89062 3.46875 3.94602 3.63068 3.98864L4.51705 4.22727C4.74432 4.28693 4.99716 4.36932 5.27557 4.47443C5.55682 4.57955 5.82528 4.72301 6.08097 4.90483C6.33949 5.08381 6.55256 5.31392 6.72017 5.59517C6.88778 5.87642 6.97159 6.22159 6.97159 6.63068C6.97159 7.10227 6.84801 7.52841 6.60085 7.90909C6.35653 8.28977 5.99858 8.59233 5.52699 8.81676C5.05824 9.04119 4.48864 9.15341 3.81818 9.15341C3.19318 9.15341 2.65199 9.05256 2.1946 8.85085C1.74006 8.64915 1.3821 8.3679 1.12074 8.0071C0.862216 7.64631 0.715909 7.22727 0.681818 6.75H1.77273C1.80114 7.07955 1.91193 7.35227 2.10511 7.56818C2.30114 7.78125 2.5483 7.94034 2.84659 8.04545C3.14773 8.14773 3.47159 8.19886 3.81818 8.19886C4.22159 8.19886 4.58381 8.13352 4.90483 8.00284C5.22585 7.86932 5.48011 7.68466 5.66761 7.44886C5.85511 7.21023 5.94886 6.93182 5.94886 6.61364C5.94886 6.32386 5.8679 6.08807 5.70597 5.90625C5.54403 5.72443 5.33097 5.5767 5.06676 5.46307C4.80256 5.34943 4.51705 5.25 4.21023 5.16477L3.13636 4.85795C2.45455 4.66193 1.91477 4.3821 1.51705 4.01847C1.11932 3.65483 0.920455 3.17898 0.920455 2.59091C0.920455 2.10227 1.05256 1.67614 1.31676 1.3125C1.58381 0.946023 1.94176 0.661932 2.39062 0.460227C2.84233 0.255682 3.34659 0.153409 3.90341 0.153409C4.46591 0.153409 4.96591 0.254261 5.40341 0.455966C5.84091 0.654829 6.1875 0.927556 6.44318 1.27415C6.7017 1.62074 6.83807 2.0142 6.85227 2.45455H5.82955ZM15.6296 0.272727V9H14.6069L9.85121 2.14773H9.76598V9H8.70916V0.272727H9.73189L14.5046 7.14205H14.5898V0.272727H15.6296ZM22.517 2.45455C22.4659 2.02273 22.2585 1.6875 21.8949 1.44886C21.5313 1.21023 21.0852 1.09091 20.5568 1.09091C20.1705 1.09091 19.8324 1.15341 19.5426 1.27841C19.2557 1.40341 19.0313 1.57528 18.8693 1.79403C18.7102 2.01278 18.6307 2.26136 18.6307 2.53977C18.6307 2.77273 18.6861 2.97301 18.7969 3.14062C18.9105 3.3054 19.0554 3.44318 19.2315 3.55398C19.4077 3.66193 19.5923 3.75142 19.7855 3.82244C19.9787 3.89062 20.1562 3.94602 20.3182 3.98864L21.2045 4.22727C21.4318 4.28693 21.6847 4.36932 21.9631 4.47443C22.2443 4.57955 22.5128 4.72301 22.7685 4.90483C23.027 5.08381 23.2401 5.31392 23.4077 5.59517C23.5753 5.87642 23.6591 6.22159 23.6591 6.63068C23.6591 7.10227 23.5355 7.52841 23.2884 7.90909C23.044 8.28977 22.6861 8.59233 22.2145 8.81676C21.7457 9.04119 21.1761 9.15341 20.5057 9.15341C19.8807 9.15341 19.3395 9.05256 18.8821 8.85085C18.4276 8.64915 18.0696 8.3679 17.8082 8.0071C17.5497 7.64631 17.4034 7.22727 17.3693 6.75H18.4602C18.4886 7.07955 18.5994 7.35227 18.7926 7.56818C18.9886 7.78125 19.2358 7.94034 19.5341 8.04545C19.8352 8.14773 20.1591 8.19886 20.5057 8.19886C20.9091 8.19886 21.2713 8.13352 21.5923 8.00284C21.9134 7.86932 22.1676 7.68466 22.3551 7.44886C22.5426 7.21023 22.6364 6.93182 22.6364 6.61364C22.6364 6.32386 22.5554 6.08807 22.3935 5.90625C22.2315 5.72443 22.0185 5.5767 21.7543 5.46307C21.4901 5.34943 21.2045 5.25 20.8977 5.16477L19.8239 4.85795C19.142 4.66193 18.6023 4.3821 18.2045 4.01847C17.8068 3.65483 17.608 3.17898 17.608 2.59091C17.608 2.10227 17.7401 1.67614 18.0043 1.3125C18.2713 0.946023 18.6293 0.661932 19.0781 0.460227C19.5298 0.255682 20.0341 0.153409 20.5909 0.153409C21.1534 0.153409 21.6534 0.254261 22.0909 0.455966C22.5284 0.654829 22.875 0.927556 23.1307 1.27415C23.3892 1.62074 23.5256 2.0142 23.5398 2.45455H22.517Z" fill="#BB915B"/>
</svg>
