<svg xmlns="http://www.w3.org/2000/svg" width="22" height="21" viewBox="0 0 22 21" fill="none">
  <path d="M20.2935 18.375H19.8013C19.7578 18.375 19.7161 18.3577 19.6853 18.3269C19.6545 18.2962 19.6372 18.2544 19.6372 18.2109V11.2182C19.6376 11.1921 19.6317 11.1663 19.6201 11.1429C19.6085 11.1195 19.5915 11.0992 19.5705 11.0837C19.5495 11.0683 19.5251 11.058 19.4993 11.0539C19.4735 11.0497 19.4471 11.0518 19.4223 11.0599C19.0459 11.1782 18.6551 11.2441 18.2608 11.2559C18.2124 11.2559 18.1664 11.258 18.1213 11.258C17.3628 11.2598 16.6165 11.0671 15.9536 10.6985C15.9034 10.6706 15.847 10.656 15.7896 10.656C15.7321 10.656 15.6757 10.6706 15.6255 10.6985C14.9628 11.0671 14.2166 11.2598 13.4582 11.258C12.7041 11.259 11.9627 11.0641 11.3066 10.6924C11.256 10.6637 11.1988 10.6487 11.1406 10.6487C11.0825 10.6487 11.0253 10.6637 10.9747 10.6924C10.3088 11.0655 9.55774 11.2605 8.79434 11.2584C8.03517 11.2589 7.28904 11.0609 6.62995 10.6842C6.57895 10.6551 6.52128 10.6399 6.46261 10.6399C6.40393 10.6399 6.34626 10.6551 6.29526 10.6842C5.63617 11.0609 4.89005 11.2589 4.13087 11.2584C4.08616 11.2584 4.04104 11.2584 3.99265 11.2563H3.99018C3.58199 11.2441 3.17762 11.1738 2.78925 11.0476C2.76465 11.0396 2.73853 11.0376 2.713 11.0416C2.68748 11.0457 2.66327 11.0558 2.64236 11.0709C2.62145 11.0861 2.60443 11.1061 2.59267 11.1291C2.58092 11.1521 2.57477 11.1776 2.57473 11.2034V18.2109C2.57473 18.2544 2.55745 18.2962 2.52668 18.3269C2.49591 18.3577 2.45418 18.375 2.41067 18.375H1.93899C1.58462 18.375 1.27864 18.6473 1.26305 19.0017C1.25907 19.0903 1.27306 19.1787 1.3042 19.2617C1.33534 19.3447 1.38297 19.4206 1.44422 19.4847C1.50547 19.5488 1.57908 19.5998 1.66059 19.6346C1.7421 19.6695 1.82983 19.6875 1.91848 19.6875H20.273C20.6274 19.6875 20.9333 19.4152 20.9489 19.0608C20.9529 18.9722 20.9389 18.8838 20.9078 18.8008C20.8766 18.7178 20.829 18.6419 20.7677 18.5778C20.7065 18.5137 20.6329 18.4627 20.5514 18.4279C20.4699 18.393 20.3821 18.375 20.2935 18.375ZM9.79349 15.5859C9.79349 15.6294 9.7762 15.6712 9.74543 15.7019C9.71467 15.7327 9.67294 15.75 9.62942 15.75H6.02005C5.97654 15.75 5.93481 15.7327 5.90404 15.7019C5.87327 15.6712 5.85599 15.6294 5.85599 15.5859V12.9609C5.85599 12.8304 5.90784 12.7052 6.00014 12.6129C6.09245 12.5206 6.21764 12.4688 6.34817 12.4688H9.3013C9.43183 12.4688 9.55702 12.5206 9.64933 12.6129C9.74163 12.7052 9.79349 12.8304 9.79349 12.9609V15.5859ZM16.1919 18.375H13.2388C13.1953 18.375 13.1536 18.3577 13.1228 18.3269C13.092 18.2962 13.0747 18.2544 13.0747 18.2109V12.9609C13.0747 12.8304 13.1266 12.7052 13.2189 12.6129C13.3112 12.5206 13.4364 12.4688 13.5669 12.4688H15.8638C15.9943 12.4688 16.1195 12.5206 16.2118 12.6129C16.3041 12.7052 16.356 12.8304 16.356 12.9609V18.2109C16.356 18.2544 16.3387 18.2962 16.3079 18.3269C16.2772 18.3577 16.2354 18.375 16.1919 18.375ZM20.8091 6.98414L19.0487 2.94451C18.5876 1.95316 17.5348 1.3125 16.3662 1.3125H5.84368C4.67514 1.3125 3.62227 1.95316 3.16126 2.94451L1.40087 6.98414C1.03173 7.78025 1.5194 8.5977 1.51981 8.59811L1.5313 8.61656C1.55139 8.64855 1.58708 8.69859 1.60882 8.73059C1.61087 8.73305 1.61251 8.73592 1.61456 8.73879L1.81964 8.98693C1.8273 8.9963 1.83552 9.0052 1.84425 9.01359L2.04932 9.2117L2.06655 9.22646C2.18699 9.32969 2.31581 9.42271 2.45169 9.50455V9.5066C2.89806 9.777 3.40662 9.92773 3.92825 9.94424H4.02956C4.81881 9.94571 5.5793 9.64805 6.15786 9.11121L6.1714 9.0985C6.23182 9.04156 6.3117 9.00986 6.39473 9.00986C6.47775 9.00986 6.55763 9.04156 6.61806 9.0985L6.63159 9.11121C7.21631 9.64714 7.98067 9.94443 8.77384 9.94443C9.567 9.94443 10.3314 9.64714 10.9161 9.11121C10.9767 9.05506 11.0563 9.02386 11.139 9.02386C11.2217 9.02386 11.3013 9.05506 11.3619 9.11121C11.9449 9.64544 12.7065 9.94257 13.4972 9.94432C14.288 9.94606 15.0508 9.6523 15.6362 9.12064C15.6959 9.0653 15.7744 9.03455 15.8558 9.03455C15.9372 9.03455 16.0157 9.0653 16.0754 9.12064C16.6614 9.65554 17.4276 9.94966 18.221 9.94424H18.3231C18.8316 9.92525 19.3264 9.77399 19.7586 9.50537C19.7976 9.48199 19.8349 9.45738 19.8727 9.43277C20.1642 9.23625 20.4179 8.9888 20.6216 8.70229L20.693 8.59441C20.7001 8.58348 20.7067 8.57199 20.7127 8.55996C20.7808 8.42133 21.1458 7.70848 20.8091 6.98414Z" fill="#BB915B"/>
</svg>