<svg xmlns="http://www.w3.org/2000/svg" width="22" height="21" viewBox="0 0 22 21" fill="none">
  <path d="M6.01837 9.44125C7.12717 11.9175 8.91358 13.9475 11.0927 15.2075L12.7867 13.2825C13.0023 13.0375 13.3026 12.9675 13.5721 13.0638C14.4345 13.3875 15.3585 13.5625 16.321 13.5625C16.5252 13.5625 16.7211 13.6547 16.8655 13.8188C17.0099 13.9829 17.091 14.2054 17.091 14.4375V17.5C17.091 17.7321 17.0099 17.9546 16.8655 18.1187C16.7211 18.2828 16.5252 18.375 16.321 18.375C12.8493 18.375 9.51981 16.8078 7.06495 14.0182C4.61008 11.2286 3.23096 7.4451 3.23096 3.5C3.23096 3.26794 3.31208 3.04538 3.45649 2.88128C3.60089 2.71719 3.79674 2.625 4.00096 2.625H6.69597C6.90019 2.625 7.09604 2.71719 7.24045 2.88128C7.38485 3.04538 7.46598 3.26794 7.46598 3.5C7.46598 4.59375 7.61998 5.64375 7.90488 6.62375C7.98958 6.93 7.92798 7.27125 7.71238 7.51625L6.01837 9.44125Z" fill="#BB915B"/>
</svg>