<svg xmlns="http://www.w3.org/2000/svg" width="31" height="30" viewBox="0 0 31 30" fill="none">
  <path d="M28.7754 6.97611C28.6451 6.84459 28.4899 6.74029 28.3189 6.66929C28.1479 6.59828 27.9645 6.56198 27.7793 6.5625H26.7849V4.21875C26.7844 3.84592 26.6361 3.48848 26.3725 3.22484C26.1089 2.96121 25.7514 2.81292 25.3786 2.8125H5.1419C4.04436 2.81252 2.99178 3.24852 2.2157 4.0246C1.43962 4.80068 1.00362 5.85326 1.0036 6.9508V23.0492C1.00362 24.1467 1.43962 25.1993 2.2157 25.9754C2.99178 26.7515 4.04436 27.1875 5.1419 27.1875H27.7239C28.0959 27.1868 28.4525 27.039 28.7159 26.7764C28.9793 26.5138 29.1283 26.1577 29.1302 25.7858L29.1855 7.97355C29.1867 7.78841 29.151 7.60489 29.0806 7.43366C29.0102 7.26242 28.9065 7.10689 28.7754 6.97611ZM27.2567 25.3125H5.1419C4.54164 25.3125 3.96596 25.074 3.54151 24.6496C3.11706 24.2251 2.8786 23.6495 2.8786 23.0492V6.9508C2.8786 6.35054 3.11706 5.77486 3.54151 5.35041C3.96596 4.92595 4.54164 4.6875 5.1419 4.6875H24.9099V6.5625H5.22235V8.4375H27.3091L27.2567 25.3125Z" fill="#BB915B"/>
  <path d="M23.0349 15.4688H24.9099V17.3438H23.0349V15.4688Z" fill="white"/>
</svg>